<?xml version="1.0" encoding="UTF-8"?><svg id="a" xmlns="http://www.w3.org/2000/svg" viewBox="0 0 143.4 94.2"><defs><style>.b{fill: var(--logo-main-color);}.c{fill: var(--logo-secondary-color);}</style></defs><path class="b" d="M125.5,77.2h-3.9v-10.3h3.9c2.9,0,5.3-2.4,5.3-5.3v-8.1c0-2.9-2.4-4.4-4.5-4.7l-4.5-.7c-5-.8-9.3-4-11.5-8.5v-.3c-.1,0-8.4-23.7-8.4-23.7-.9-1.7-2.7-2.7-4.6-2.7H27.1c-2.9,0-5.3,2.4-5.3,5.3v43.3c0,2.9,2.4,5.3,5.3,5.3h3.3v10.3h-3.3c-8.6,0-15.6-7-15.6-15.6V18.2c0-8.6,7-15.6,15.6-15.6h70.3c6,0,11.3,3.3,14,8.7v.3c.1,0,8.4,23.6,8.4,23.6.8,1.4,2.2,2.4,3.8,2.6l4.5.7c7.7,1.2,13.2,7.4,13.2,14.9v8.1c0,8.6-7,15.6-15.6,15.6Z"/><rect class="b" x="55.6" y="66.9" width="43" height="10.3"/><path class="b" d="M42,91.6c-9.6,0-17.5-7.8-17.5-17.5s7.8-17.5,17.5-17.5,17.5,7.8,17.5,17.5-7.8,17.5-17.5,17.5ZM42,67c-3.9,0-7.1,3.2-7.1,7.1s3.2,7.1,7.1,7.1,7.1-3.2,7.1-7.1-3.2-7.1-7.1-7.1Z"/><path class="b" d="M110.1,91.6c-9.6,0-17.5-7.8-17.5-17.5s7.8-17.5,17.5-17.5,17.5,7.8,17.5,17.5-7.8,17.5-17.5,17.5ZM110.1,67c-3.9,0-7.1,3.2-7.1,7.1s3.2,7.1,7.1,7.1,7.1-3.2,7.1-7.1-3.2-7.1-7.1-7.1Z"/><path class="c" d="M54.4,51.5h0c0,0,16.9,0,16.9,0,1.9,0,3.4-1.5,3.4-3.4s-1.5-3.4-3.4-3.4h-16.9c0-.1,0-.1-.2-.1-1.5,0-2.8-1.2-2.8-2.8s1.2-2.8,2.8-2.8.1,0,.2,0h0s16.9,0,16.9,0c1.9,0,3.4-1.5,3.4-3.4s-1.5-3.4-3.4-3.4h-16.9c0,0,0,0-.2,0-1.5,0-2.8-1.2-2.8-2.8s1.2-2.8,2.8-2.8.1,0,.2,0h0c0,0,16.9,0,16.9,0,1.9,0,3.4-1.5,3.4-3.4s-1.5-3.4-3.4-3.4h-16.9c0,0-2.2,0-2.2,0,0,0-6-.2-9,2.7-3,2.9-6.4,6.8-8.8,7.7-1.4.5-3.6.7-5.2.8,0,0-.1,0-.2,0H6.7c-2.5,0-4.6,2-4.6,4.6s2,4.6,4.6,4.6h22.2c.1,0,.2,0,.3,0,1.6,0,3.7.3,5.1.8,2.4.9,5.8,4.8,8.8,7.7,3,2.9,9,2.7,9,2.7h2.2Z"/></svg>