<?xml version="1.0" encoding="UTF-8"?><svg id="Capa_1" xmlns="http://www.w3.org/2000/svg" xmlns:xlink="http://www.w3.org/1999/xlink" viewBox="0 0 507.88 118.94"><defs><style>.cls-1{clip-path:url(#clippath-1);}.cls-2{fill: var(--logo-main-color);}.cls-3{fill: var(--logo-secondary-color);}.cls-4{clip-path:url(#clippath);}</style><clipPath id="clippath"><polygon class="cls-2" points="1.88 17.23 49.46 17.23 1.5 73.41 1.5 89.61 71.47 89.61 71.47 73.41 23.89 73.41 71.85 17.23 71.85 1.03 1.88 1.03 1.88 17.23"/></clipPath><clipPath id="clippath-1"><path class="cls-2" d="M309.75,26.34l-17.16,43.81-18.02-43.81h-18.35l28.66,62.57-2.72,6.4c-.84,1.85-1.94,3.27-3.29,4.24-1.35.97-2.91,1.46-4.68,1.46-.93,0-2-.23-3.23-.7-1.22-.46-2.55-1.08-3.99-1.84l-6.2,13.54c2.11,1.18,4.53,2.21,7.28,3.1,2.74.89,5.25,1.33,7.53,1.33,4.56,0,8.25-.88,11.07-2.66,2.83-1.77,5.21-4.28,7.15-7.53,1.94-3.25,3.8-6.98,5.57-11.2l28.73-68.71h-18.35Z"/></clipPath></defs><path class="cls-2" d="M489,89.31h-4.65v-12.19h4.65c3.45,0,6.25-2.8,6.25-6.25v-9.53c0-3.48-2.83-5.17-5.26-5.56l-5.26-.84c-5.87-.94-10.95-4.68-13.59-10.01l-.17-.34-9.75-27.89c-1.11-1.98-3.17-3.19-5.45-3.19h-82.84c-3.45,0-6.25,2.8-6.25,6.25v51.11c0,3.45,2.8,6.25,6.25,6.25h3.88v12.19h-3.88c-10.17,0-18.44-8.27-18.44-18.44V19.77c0-10.17,8.27-18.44,18.44-18.44h82.84c7.05,0,13.38,3.92,16.51,10.24l.17.34,9.75,27.89c.93,1.66,2.58,2.81,4.46,3.11l5.26.84c9.14,1.47,15.52,8.7,15.52,17.59v9.53c0,10.17-8.27,18.44-18.44,18.44Z"/><rect class="cls-2" x="406.49" y="77.12" width="50.66" height="12.19"/><path class="cls-2" d="M390.49,106.23c-11.35,0-20.58-9.23-20.58-20.58s9.23-20.58,20.58-20.58,20.58,9.23,20.58,20.58-9.23,20.58-20.58,20.58ZM390.49,77.26c-4.63,0-8.39,3.77-8.39,8.39s3.76,8.39,8.39,8.39,8.39-3.77,8.39-8.39-3.76-8.39-8.39-8.39Z"/><path class="cls-2" d="M470.8,106.23c-11.35,0-20.58-9.23-20.58-20.58s9.23-20.58,20.58-20.58,20.58,9.23,20.58,20.58-9.23,20.58-20.58,20.58ZM470.8,77.26c-4.63,0-8.39,3.77-8.39,8.39s3.76,8.39,8.39,8.39,8.39-3.77,8.39-8.39-3.76-8.39-8.39-8.39Z"/><path class="cls-3" d="M405.11,58.99v-.06h19.94c2.19,0,3.96-1.77,3.96-3.96s-1.77-3.96-3.96-3.96h-19.94v-.13c-.06,0-.12,0-.18,0-1.8,0-3.26-1.46-3.26-3.26s1.46-3.26,3.26-3.26c.06,0,.12,0,.18,0v-.04h19.94c2.19,0,3.96-1.77,3.96-3.96s-1.77-3.96-3.96-3.96h-19.94v-.05c-.06,0-.12,0-.18,0-1.8,0-3.26-1.46-3.26-3.26s1.46-3.26,3.26-3.26c.06,0,.12,0,.18,0v-.11h19.94c2.19,0,3.96-1.77,3.96-3.96s-1.77-3.96-3.96-3.96h-19.94v-.08h-2.6s-7.09-.21-10.59,3.23c-3.5,3.44-7.49,8.04-10.38,9.07-1.68.6-4.28.85-6.15.96-.08,0-.17-.01-.25-.01h-26.22c-2.97,0-5.37,2.41-5.37,5.37s2.41,5.37,5.37,5.37h26.22c.13,0,.26-.01.38-.02,1.86.11,4.37.36,6.02.95,2.89,1.03,6.87,5.63,10.38,9.07,3.5,3.44,10.59,3.22,10.59,3.22h2.6Z"/><polygon class="cls-2" points="1.88 17.23 49.46 17.23 1.5 73.41 1.5 89.61 71.47 89.61 71.47 73.41 23.89 73.41 71.85 17.23 71.85 1.03 1.88 1.03 1.88 17.23"/><g class="cls-4"><polygon class="cls-3" points="14.58 22.5 14.58 -5.36 1.71 -5.36 1.71 20.56 14.58 22.5"/></g><path class="cls-2" d="M124.62,59.49c0,5.23-1.14,9.22-3.42,11.96-2.28,2.74-5.61,4.07-10,3.99-2.28,0-4.32-.53-6.14-1.58-1.82-1.05-3.21-2.78-4.18-5.19-.97-2.4-1.46-5.71-1.46-9.93V26.34h-16.7v35.81c0,6.75.91,12.25,2.72,16.51,1.81,4.26,4.49,7.4,8.04,9.43,3.54,2.02,7.85,3.04,12.91,3.04s8.98-1.25,12.53-3.73c2.32-1.63,4.3-3.73,5.97-6.29l.74,8.51h15.69V26.34h-16.7v33.15Z"/><path class="cls-2" d="M207.32,28.87c-4.26-2.7-9.3-4.05-15.12-4.05-5.32,0-9.81,1.35-13.48,4.05-2.29,1.69-4.25,3.81-5.87,6.37l-.77-8.9h-15.69v88.58h16.7v-33.89c1.57,2.42,3.44,4.44,5.63,6.05,3.67,2.7,8.16,4.05,13.48,4.05,5.82,0,10.86-1.35,15.12-4.05,4.26-2.7,7.57-6.54,9.93-11.52,2.36-4.98,3.54-10.84,3.54-17.59s-1.18-12.72-3.54-17.65c-2.36-4.94-5.67-8.75-9.93-11.45ZM201.43,67.21c-1.35,2.7-3.19,4.81-5.5,6.33-2.32,1.52-5,2.28-8.04,2.28-2.87,0-5.42-.76-7.66-2.28-2.24-1.52-3.99-3.63-5.25-6.33-1.26-2.7-1.9-5.78-1.9-9.24s.63-6.52,1.9-9.17c1.27-2.66,3.04-4.75,5.32-6.26,2.28-1.52,4.85-2.28,7.72-2.28,3.04,0,5.71.76,8.04,2.28,2.32,1.52,4.13,3.61,5.44,6.26,1.31,2.66,1.96,5.72,1.96,9.17s-.68,6.54-2.02,9.24Z"/><rect class="cls-2" x="231.8" y="1.03" width="16.7" height="88.58"/><path class="cls-2" d="M309.75,26.34l-17.16,43.81-18.02-43.81h-18.35l28.66,62.57-2.72,6.4c-.84,1.85-1.94,3.27-3.29,4.24-1.35.97-2.91,1.46-4.68,1.46-.93,0-2-.23-3.23-.7-1.22-.46-2.55-1.08-3.99-1.84l-6.2,13.54c2.11,1.18,4.53,2.21,7.28,3.1,2.74.89,5.25,1.33,7.53,1.33,4.56,0,8.25-.88,11.07-2.66,2.83-1.77,5.21-4.28,7.15-7.53,1.94-3.25,3.8-6.98,5.57-11.2l28.73-68.71h-18.35Z"/><g class="cls-1"><polygon class="cls-3" points="301.77 39 329.63 39 329.63 26.13 303.71 26.13 301.77 39"/></g></svg>