<?xml version="1.0" encoding="UTF-8"?><svg id="Capa_1" xmlns="http://www.w3.org/2000/svg" xmlns:xlink="http://www.w3.org/1999/xlink" viewBox="0 0 357.03 323.75"><defs><style>.cls-1{clip-path:url(#clippath-1);}.cls-2{fill: var(--logo-main-color);}.cls-3{fill: var(--logo-secondary-color);}.cls-4{clip-path:url(#clippath);}</style><clipPath id="clippath"><polygon class="cls-2" points="8.75 213.83 58.78 213.83 8.35 272.91 8.35 289.94 81.93 289.94 81.93 272.91 31.9 272.91 82.33 213.83 82.33 196.8 8.75 196.8 8.75 213.83"/></clipPath><clipPath id="clippath-1"><path class="cls-2" d="M332.47,223.41l-18.04,46.07-18.95-46.07h-19.29l30.13,65.79-2.86,6.73c-.89,1.95-2.04,3.44-3.46,4.46-1.42,1.02-3.06,1.53-4.92,1.53-.98,0-2.11-.25-3.39-.73-1.29-.49-2.68-1.13-4.19-1.93l-6.52,14.24c2.22,1.24,4.77,2.33,7.65,3.26,2.88.93,5.52,1.4,7.92,1.4,4.79,0,8.67-.93,11.64-2.79,2.97-1.86,5.48-4.5,7.52-7.92,2.04-3.42,3.99-7.34,5.85-11.78l30.2-72.25h-19.29Z"/></clipPath></defs><path class="cls-2" d="M268.11,142.68h-7.25v-19h7.25c5.37,0,9.74-4.37,9.74-9.74v-14.85c0-5.42-4.42-8.06-8.2-8.66l-8.21-1.32c-9.15-1.47-17.07-7.3-21.19-15.6l-.26-.53-15.2-43.48c-1.72-3.08-4.94-4.97-8.5-4.97H87.15c-5.37,0-9.74,4.37-9.74,9.74v79.67c0,5.37,4.37,9.74,9.74,9.74h6.05v19h-6.05c-15.85,0-28.74-12.89-28.74-28.74V34.26c0-15.85,12.89-28.74,28.74-28.74h129.15c10.99,0,20.86,6.12,25.75,15.96l.26.53,15.19,43.48c1.45,2.58,4.02,4.38,6.95,4.85l8.21,1.32c14.24,2.29,24.19,13.56,24.19,27.42v14.85c0,15.85-12.89,28.74-28.74,28.74Z"/><rect class="cls-2" x="139.48" y="123.68" width="78.98" height="19"/><path class="cls-2" d="M114.53,169.05c-17.69,0-32.08-14.39-32.08-32.08s14.39-32.08,32.08-32.08,32.08,14.39,32.08,32.08-14.39,32.08-32.08,32.08ZM114.53,123.89c-7.21,0-13.08,5.87-13.08,13.08s5.87,13.08,13.08,13.08,13.08-5.87,13.08-13.08-5.87-13.08-13.08-13.08Z"/><path class="cls-2" d="M239.73,169.05c-17.69,0-32.08-14.39-32.08-32.08s14.39-32.08,32.08-32.08,32.08,14.39,32.08,32.08-14.39,32.08-32.08,32.08ZM239.73,123.89c-7.21,0-13.08,5.87-13.08,13.08s5.87,13.08,13.08,13.08,13.08-5.87,13.08-13.08-5.87-13.08-13.08-13.08Z"/><path class="cls-3" d="M137.33,95.41v-.1h31.08c3.41,0,6.17-2.76,6.17-6.17s-2.76-6.17-6.17-6.17h-31.08v-.2c-.09,0-.18.01-.28.01-2.8,0-5.08-2.27-5.08-5.08s2.27-5.08,5.08-5.08c.09,0,.18,0,.28.01v-.06h31.08c3.41,0,6.17-2.76,6.17-6.17s-2.76-6.17-6.17-6.17h-31.08v-.08c-.09,0-.18.01-.28.01-2.8,0-5.08-2.27-5.08-5.08s2.27-5.08,5.08-5.08c.09,0,.18,0,.28.01v-.18h31.08c3.41,0,6.17-2.76,6.17-6.17s-2.76-6.17-6.17-6.17h-31.08v-.12l-4.06.02s-11.05-.34-16.51,5.01c-5.46,5.36-11.68,12.53-16.18,14.14-2.62.94-6.67,1.33-9.58,1.49-.13,0-.26-.02-.4-.02h-40.88c-4.63,0-8.38,3.75-8.38,8.38s3.75,8.38,8.38,8.38h40.88c.2,0,.4-.02.6-.03,2.9.17,6.82.56,9.38,1.48,4.5,1.61,10.71,8.78,16.18,14.14,5.46,5.36,16.51,5.01,16.51,5.01l4.06.02Z"/><polygon class="cls-2" points="8.75 213.83 58.78 213.83 8.35 272.91 8.35 289.94 81.93 289.94 81.93 272.91 31.9 272.91 82.33 213.83 82.33 196.8 8.75 196.8 8.75 213.83"/><g class="cls-4"><polygon class="cls-3" points="22.1 219.38 22.1 190.08 8.57 190.08 8.57 217.34 22.1 219.38"/></g><path class="cls-2" d="M137.81,258.27c0,5.5-1.2,9.69-3.59,12.57-2.4,2.88-5.9,4.28-10.51,4.19-2.4,0-4.55-.55-6.45-1.66-1.91-1.11-3.37-2.93-4.39-5.45-1.02-2.53-1.53-6.01-1.53-10.45v-34.06h-17.56v37.65c0,7.1.95,12.89,2.86,17.36,1.91,4.48,4.72,7.78,8.45,9.91,3.73,2.13,8.25,3.19,13.57,3.19s9.45-1.31,13.17-3.93c2.43-1.71,4.52-3.92,6.27-6.62l.78,8.94h16.5v-66.53h-17.56v34.86Z"/><path class="cls-2" d="M224.76,226.07c-4.48-2.84-9.78-4.26-15.9-4.26-5.59,0-10.31,1.42-14.17,4.26-2.41,1.78-4.47,4.01-6.17,6.7l-.81-9.36h-16.5v93.14h17.56v-35.63c1.65,2.54,3.62,4.67,5.92,6.36,3.86,2.84,8.58,4.26,14.17,4.26,6.12,0,11.42-1.42,15.9-4.26,4.48-2.84,7.96-6.87,10.44-12.11,2.48-5.23,3.73-11.4,3.73-18.5s-1.24-13.37-3.73-18.56c-2.48-5.19-5.97-9.2-10.44-12.04ZM218.57,266.39c-1.42,2.84-3.35,5.06-5.79,6.65-2.44,1.6-5.26,2.4-8.45,2.4-3.02,0-5.7-.8-8.05-2.4-2.35-1.6-4.19-3.81-5.52-6.65-1.33-2.84-2-6.07-2-9.71s.67-6.85,2-9.65c1.33-2.79,3.19-4.99,5.59-6.59,2.39-1.6,5.1-2.4,8.12-2.4,3.19,0,6.01.8,8.45,2.4,2.44,1.6,4.34,3.79,5.72,6.59,1.37,2.79,2.06,6.01,2.06,9.65s-.71,6.88-2.13,9.71Z"/><rect class="cls-2" x="250.51" y="196.8" width="17.56" height="93.14"/><path class="cls-2" d="M332.47,223.41l-18.04,46.07-18.95-46.07h-19.29l30.13,65.79-2.86,6.73c-.89,1.95-2.04,3.44-3.46,4.46-1.42,1.02-3.06,1.53-4.92,1.53-.98,0-2.11-.25-3.39-.73-1.29-.49-2.68-1.13-4.19-1.93l-6.52,14.24c2.22,1.24,4.77,2.33,7.65,3.26,2.88.93,5.52,1.4,7.92,1.4,4.79,0,8.67-.93,11.64-2.79,2.97-1.86,5.48-4.5,7.52-7.92,2.04-3.42,3.99-7.34,5.85-11.78l30.2-72.25h-19.29Z"/><g class="cls-1"><polygon class="cls-3" points="324.07 236.73 353.37 236.73 353.37 223.2 326.11 223.2 324.07 236.73"/></g></svg>