<?xml version="1.0" encoding="UTF-8"?><svg id="a" xmlns="http://www.w3.org/2000/svg" xmlns:xlink="http://www.w3.org/1999/xlink" viewBox="0 0 330.9 118.9"><defs><style>.d{fill: var(--logo-main-color);}.e{clip-path:url(#c);}.f{clip-path:url(#b);}.g{fill: var(--logo-secondary-color);}</style><clipPath id="b"><polygon class="d" points="1.9 17.2 49.5 17.2 1.5 73.4 1.5 89.6 71.5 89.6 71.5 73.4 23.9 73.4 71.9 17.2 71.9 1 1.9 1 1.9 17.2"/></clipPath><clipPath id="c"><path class="d" d="M309.8,26.3l-17.2,43.8-18-43.8h-18.3l28.7,62.6-2.7,6.4c-.8,1.9-1.9,3.3-3.3,4.2-1.3,1-2.9,1.5-4.7,1.5s-2-.2-3.2-.7c-1.2-.5-2.6-1.1-4-1.8l-6.2,13.5c2.1,1.2,4.5,2.2,7.3,3.1,2.7.9,5.3,1.3,7.5,1.3,4.6,0,8.2-.9,11.1-2.7,2.8-1.8,5.2-4.3,7.1-7.5,1.9-3.2,3.8-7,5.6-11.2l28.7-68.7h-18.3Z"/></clipPath></defs><polygon class="d" points="1.9 17.2 49.5 17.2 1.5 73.4 1.5 89.6 71.5 89.6 71.5 73.4 23.9 73.4 71.9 17.2 71.9 1 1.9 1 1.9 17.2"/><g class="f"><polygon class="g" points="14.6 22.5 14.6 -5.4 1.7 -5.4 1.7 20.6 14.6 22.5"/></g><path class="d" d="M124.6,59.5c0,5.2-1.1,9.2-3.4,12-2.3,2.7-5.6,4.1-10,4-2.3,0-4.3-.5-6.1-1.6-1.8-1.1-3.2-2.8-4.2-5.2-1-2.4-1.5-5.7-1.5-9.9V26.3h-16.7v35.8c0,6.8.9,12.3,2.7,16.5,1.8,4.3,4.5,7.4,8,9.4,3.5,2,7.8,3,12.9,3s9-1.2,12.5-3.7c2.3-1.6,4.3-3.7,6-6.3l.7,8.5h15.7V26.3h-16.7v33.2Z"/><path class="d" d="M207.3,28.9c-4.3-2.7-9.3-4-15.1-4s-9.8,1.4-13.5,4c-2.3,1.7-4.3,3.8-5.9,6.4l-.8-8.9h-15.7v88.6h16.7v-33.9c1.6,2.4,3.4,4.4,5.6,6,3.7,2.7,8.2,4,13.5,4s10.9-1.4,15.1-4c4.3-2.7,7.6-6.5,9.9-11.5,2.4-5,3.5-10.8,3.5-17.6s-1.2-12.7-3.5-17.7c-2.4-4.9-5.7-8.8-9.9-11.5ZM201.4,67.2c-1.4,2.7-3.2,4.8-5.5,6.3-2.3,1.5-5,2.3-8,2.3s-5.4-.8-7.7-2.3c-2.2-1.5-4-3.6-5.3-6.3-1.3-2.7-1.9-5.8-1.9-9.2s.6-6.5,1.9-9.2c1.3-2.7,3-4.7,5.3-6.3,2.3-1.5,4.9-2.3,7.7-2.3s5.7.8,8,2.3c2.3,1.5,4.1,3.6,5.4,6.3,1.3,2.7,2,5.7,2,9.2s-.7,6.5-2,9.2Z"/><rect class="d" x="231.8" y="1" width="16.7" height="88.6"/><path class="d" d="M309.8,26.3l-17.2,43.8-18-43.8h-18.3l28.7,62.6-2.7,6.4c-.8,1.9-1.9,3.3-3.3,4.2-1.3,1-2.9,1.5-4.7,1.5s-2-.2-3.2-.7c-1.2-.5-2.6-1.1-4-1.8l-6.2,13.5c2.1,1.2,4.5,2.2,7.3,3.1,2.7.9,5.3,1.3,7.5,1.3,4.6,0,8.2-.9,11.1-2.7,2.8-1.8,5.2-4.3,7.1-7.5,1.9-3.2,3.8-7,5.6-11.2l28.7-68.7h-18.3Z"/><g class="e"><polygon class="g" points="301.8 39 329.6 39 329.6 26.1 303.7 26.1 301.8 39"/></g></svg>